<!DOCTYPE svg PUBLIC "-//W3C//DTD SVG 1.1//EN" "http://www.w3.org/Graphics/SVG/1.1/DTD/svg11.dtd">

<!-- Uploaded to: SVG Repo, www.svgrepo.com, Transformed by: SVG Repo Mixer Tools -->
<svg fill="#000000" width="256px" height="256px" viewBox="-2.4 -2.4 28.80 28.80" xmlns="http://www.w3.org/2000/svg" stroke="#000000" stroke-width="0.00024000000000000003">

<g id="SVGRepo_bgCarrier" stroke-width="0">

<path transform="translate(-2.4, -2.4), scale(0.8999999999999999)" d="M16,27.012482090128792C19.01959640746179,26.774615121563084,21.83288143750612,26.051381015669563,24.314067923626624,24.314067923626624C27.476055008314543,22.10006200757465,31.42226943214673,19.84794329931428,31.72774755789174,16C32.041357467815004,12.049624998370245,29.008034993121544,8.504979344254306,25.747965371977354,6.252034628022647C22.95077342777503,4.318971981107579,19.36929272969751,4.6739505242580295,16,5.130984955363804C13.190459962417398,5.512090616331628,10.809087745995532,6.827684398790852,8.580719876821473,8.580719876821469C5.912751809183744,10.679584584718762,2.638159076262356,12.635938581301026,2.1838712344566993,15.999999999999998C1.6943318561704155,19.625103698309587,3.4035500469489817,23.455914311950366,6.264052503335348,25.735947496664647C8.92482677333473,27.85678246364329,12.60791220404355,27.27969185337365,16,27.012482090128792" fill="#ffd1d1" strokewidth="0"/>

</g>

<g id="SVGRepo_tracerCarrier" stroke-linecap="round" stroke-linejoin="round"/>

<g id="SVGRepo_iconCarrier"> <path d="M15.5,12 L17,12 L17,3.5 C17,2.67157288 16.3284271,2 15.5,2 L6.5,2 C5.67157288,2 5,2.67157288 5,3.5 L5,12 L6.5,12 L6.5,11.6323808 C6.5,10.7542236 6.96074708,9.94045656 7.71376061,9.48864844 L8.68372662,8.90666884 C8.2565549,8.38832622 8,7.72412391 8,7 C8,5.34314575 9.34314575,4 11,4 C12.6568542,4 14,5.34314575 14,7 C14,7.72412391 13.7434451,8.38832622 13.3162734,8.90666884 L14.2862394,9.48864844 C15.0392529,9.94045656 15.5,10.7542236 15.5,11.6323808 L15.5,12 L15.5,12 Z M14.5,12 L14.5,11.6323808 C14.5,11.1054865 14.2235517,10.6172262 13.7717436,10.3461414 L12.5131641,9.59099367 C12.0689421,9.85098383 11.5518734,10 11,10 C10.4481266,10 9.93105788,9.85098383 9.48683587,9.59099367 L8.22825637,10.3461414 C7.77644825,10.6172262 7.5,11.1054865 7.5,11.6323808 L7.5,12 L14.5,12 L14.5,12 Z M17,13 L5,13 L5,18.5 C5,19.3284271 5.67157288,20 6.5,20 L15.5,20 C16.3284271,20 17,19.3284271 17,18.5 L17,13 L17,13 Z M17.958119,3.04188098 C19.1200402,3.25706275 20,4.27576856 20,5.5 L20,20.5 C20,21.8807119 18.8807119,23 17.5,23 L8.5,23 C7.27576856,23 6.25706275,22.1200402 6.04188098,20.958119 C4.8799598,20.7429373 4,19.7242314 4,18.5 L4,3.5 C4,2.11928813 5.11928813,1 6.5,1 L15.5,1 C16.7242314,1 17.7429373,1.8799598 17.958119,3.04188098 L17.958119,3.04188098 Z M7.08535285,21 C7.29127106,21.5825962 7.84689059,22 8.5,22 L17.5,22 C18.3284271,22 19,21.3284271 19,20.5 L19,5.5 C19,4.84689059 18.5825962,4.29127106 18,4.08535285 L18,18.5 C18,19.8807119 16.8807119,21 15.5,21 L7.08535285,21 L7.08535285,21 Z M11,9 C12.1045695,9 13,8.1045695 13,7 C13,5.8954305 12.1045695,5 11,5 C9.8954305,5 9,5.8954305 9,7 C9,8.1045695 9.8954305,9 11,9 Z M7.5,16 C7.22385763,16 7,15.7761424 7,15.5 C7,15.2238576 7.22385763,15 7.5,15 L14.5,15 C14.7761424,15 15,15.2238576 15,15.5 C15,15.7761424 14.7761424,16 14.5,16 L7.5,16 Z M7.5,18 C7.22385763,18 7,17.7761424 7,17.5 C7,17.2238576 7.22385763,17 7.5,17 L12.5,17 C12.7761424,17 13,17.2238576 13,17.5 C13,17.7761424 12.7761424,18 12.5,18 L7.5,18 Z"/> </g>

</svg>